<?xml version="1.0" encoding="utf-8"?>
<!-- Generator: Adobe Illustrator 25.1.0, SVG Export Plug-In . SVG Version: 6.00 Build 0)  -->
<svg version="1.1" xmlns="http://www.w3.org/2000/svg" xmlns:xlink="http://www.w3.org/1999/xlink" x="0px" y="0px"
	 viewBox="0 0 595.8 387.6" style="enable-background:new 0 0 595.8 387.6;" xml:space="preserve">
<style type="text/css">
	.st0{fill:url(#SVGID_1_);}
	.st1{opacity:0.68;}
	.st2{fill:#F9FBFC;}
	.st3{clip-path:url(#SVGID_3_);}
	.st4{fill:url(#SVGID_4_);}
	.st5{opacity:9.000000e-02;fill:#FFFFFF;}
	.st6{fill:url(#SVGID_5_);}
	.st7{fill:url(#SVGID_6_);}
	.st8{fill:url(#SVGID_7_);}
	.st9{opacity:0.55;fill:#282A57;}
	.st10{fill:#282A57;}
	.st11{fill:url(#SVGID_8_);}
	.st12{fill:url(#SVGID_9_);}
	.st13{fill:url(#SVGID_10_);}
	.st14{fill:#FFFFFF;}
	.st15{opacity:0.55;}
</style>
<g id="BACKGROUND">
	<linearGradient id="SVGID_1_" gradientUnits="userSpaceOnUse" x1="734.4625" y1="630.3546" x2="294.6775" y2="190.5695">
		<stop  offset="0" style="stop-color:#FF6B1F"/>
		<stop  offset="0.1889" style="stop-color:#FF7121"/>
		<stop  offset="0.4467" style="stop-color:#FF8328"/>
		<stop  offset="0.7429" style="stop-color:#FF9F32"/>
		<stop  offset="1" style="stop-color:#FFBE3D"/>
	</linearGradient>
	<rect x="-77.1" y="-56.2" class="st0" width="750" height="500"/>
	<g class="st1">
		
			<image style="overflow:visible;opacity:0.37;" width="682" height="475" xlink:href="3DA00F41D62B4848.png"  transform="matrix(1 0 0 1 -32.556 -31.6639)">
		</image>
		<g>
			<path class="st2" d="M577.3,383.7H18.5c-6.9,0-12.5-5.6-12.5-12.5V19.4c0-6.9,5.6-12.5,12.5-12.5h558.7c6.9,0,12.5,5.6,12.5,12.5
				v351.8C589.7,378.1,584.1,383.7,577.3,383.7z"/>
		</g>
	</g>
</g>
<g id="OBJECTS">
	<g>
		<g>
			<defs>
				<path id="SVGID_2_" d="M587.7,390.3H8.1c-7.1,0-12.8-5.7-12.8-12.8V1.8C-4.7-5.3,1-11,8.1-11h579.7c7.1,0,12.8,5.7,12.8,12.8
					v375.8C600.5,384.6,594.8,390.3,587.7,390.3z"/>
			</defs>
			<clipPath id="SVGID_3_">
				<use xlink:href="#SVGID_2_"  style="overflow:visible;"/>
			</clipPath>
			<g class="st3">
				<linearGradient id="SVGID_4_" gradientUnits="userSpaceOnUse" x1="297.9016" y1="519.9344" x2="297.9016" y2="-35.5674">
					<stop  offset="0" style="stop-color:#9C40E0"/>
					<stop  offset="3.868391e-02" style="stop-color:#9E45DC"/>
					<stop  offset="8.552461e-02" style="stop-color:#A554D1"/>
					<stop  offset="0.1366" style="stop-color:#AF6CBF"/>
					<stop  offset="0.1907" style="stop-color:#BE8FA5"/>
					<stop  offset="0.2472" style="stop-color:#D1BB85"/>
					<stop  offset="0.3048" style="stop-color:#E8F05D"/>
					<stop  offset="0.3172" style="stop-color:#EDFC54"/>
					<stop  offset="0.3246" style="stop-color:#ECF654"/>
					<stop  offset="0.4373" style="stop-color:#E5A154"/>
					<stop  offset="0.5167" style="stop-color:#E06B54"/>
					<stop  offset="0.5552" style="stop-color:#DE5654"/>
					<stop  offset="0.6024" style="stop-color:#CF5359"/>
					<stop  offset="0.6936" style="stop-color:#A74B67"/>
					<stop  offset="0.8194" style="stop-color:#673D7E"/>
					<stop  offset="0.9736" style="stop-color:#102B9C"/>
					<stop  offset="1" style="stop-color:#0028A2"/>
				</linearGradient>
				<rect x="-8.9" y="-19.7" class="st4" width="613.7" height="417.1"/>
				<path class="st5" d="M604.7,195.1c-12.8,0.3-31.5,2.2-49,9C525,216,527.5,236.6,498,235.5c-29.5-1.1-33.1-8.7-57.7,5.4
					c-24.5,14.1-28.2,22.7-57.7,16.2c-29.5-6.5-47.7-30.1-88.3-26.4c-40.6,3.7-35.7,17.7-67.6,18.8c-31.9,1.1-55.2,16.2-74.9-4.3
					c-19.6-20.6-22.1-47.6-57.7-47.6c-35.6,0-27,27-57.7,13c-23.9-11-24.7-35.8-45.5-45.1v231.9h613.7V195.1z"/>
				
					<radialGradient id="SVGID_5_" cx="312.2014" cy="287.6213" r="94.6024" gradientTransform="matrix(1.0158 0 0 1.0355 -9.3896 0)" gradientUnits="userSpaceOnUse">
					<stop  offset="0" style="stop-color:#FFFFFF"/>
					<stop  offset="0.45" style="stop-color:#F9FCFF;stop-opacity:0.55"/>
					<stop  offset="1" style="stop-color:#EAF5FF;stop-opacity:0"/>
				</radialGradient>
				<path class="st6" d="M423.5,299.8c0,53.9-60.3,97.6-113.2,97.6c-52.9,0-122.5-44.5-122.5-98.4s69.6-96.8,122.5-96.8
					C363.2,202.2,423.5,245.9,423.5,299.8z"/>
				
					<radialGradient id="SVGID_6_" cx="317.0489" cy="292.695" r="107.5886" gradientTransform="matrix(1.0158 0 0 1.0355 -9.3896 0)" gradientUnits="userSpaceOnUse">
					<stop  offset="0" style="stop-color:#DE5654"/>
					<stop  offset="0.1673" style="stop-color:#E57343"/>
					<stop  offset="0.562" style="stop-color:#F3B21F"/>
					<stop  offset="0.8504" style="stop-color:#FCDA09"/>
					<stop  offset="1" style="stop-color:#FFE900"/>
				</radialGradient>
				<ellipse class="st7" cx="306.5" cy="290.6" rx="72.3" ry="73.7"/>
				<g>
					<linearGradient id="SVGID_7_" gradientUnits="userSpaceOnUse" x1="295.489" y1="211.6901" x2="299.2374" y2="377.8693">
						<stop  offset="0" style="stop-color:#DE5654"/>
						<stop  offset="0.1253" style="stop-color:#CF5254"/>
						<stop  offset="0.3669" style="stop-color:#A74955"/>
						<stop  offset="0.6969" style="stop-color:#683956"/>
						<stop  offset="1" style="stop-color:#282A57"/>
					</linearGradient>
					<path class="st8" d="M604.7,238.3c-8-2.1-17-4.5-19.6-5.2c-4.9-1.3-12.3-1.3-12.3-1.3l-14.7,11.3l-16,1.3l-13.5,10l-13.5,12.5
						c0,0-19.6,1.3-23.3,3.8c-3.7,2.5-16,8.8-16,8.8l-17.2,1.3c0,0-23.3-2.5-28.2-2.5s-17.2-2.5-20.9-2.5c-3.7,0-32.5-8.1-32.5-8.1
						s-20.3,7.6-24,8.9c-3.7,1.3-12.5,10.6-12.5,10.6l-10.7,11.2c0,0-18.4,2.5-22.1,2.5c-3.7,0-12.3-7.5-12.3-7.5
						s-18.4-2.5-22.1-3.8c-3.7-1.3-16-1.3-19.6-2.5c-3.7-1.3-16-3.8-25.8-8.8c-9.8-5-17.2-11.3-20.9-12.5c-3.7-1.3-18.4-6.3-25.8-5
						c-7.4,1.3-20.9,3.8-29.5,3.8c-8.6,0-23.3,0-36.8-3.8c-13.5-3.8-41.7-20-46.6-23.8c-4.9-3.8-29.5,2.5-43,7.5
						c-7.2,2.7-22.1,5.3-34.5,7.3V399h613.7V238.3z"/>
					<g>
						<path class="st9" d="M258.8,372.1l165.8-2.2l38.7-39.5l18.5-25.6l-9.1-25.1l-14.1,1c0,0-23.3-2.5-28.2-2.5
							c-3,0-8.7-0.9-13.5-1.7c-1.7,3.7-3.9,7.7-6.6,9.9c-6,5-24,7.8-28.9,8.3c-4.9,0.6-11.5,8.3-15.3,11.7
							c-3.8,3.3-15.8,13.3-22.4,15c-6.5,1.7-18.5,3.3-23.5,2.2c-4.9-1.1-12,0-19.6-5c-7.6-5-11.5-7.8-19.1-10
							c-7.6-2.2-24,2.8-27.8,0c-3.8-2.8-24-15-33.8-22.8c-9.8-7.8-8.2-12.2-22.4-20c-4.6-2.5-9-4.2-13.1-5.4c-1.2,0-2.3,0-3.2,0.2
							c-7.2,1.2-20.2,3.6-28.8,3.7c-5.5,3.4-10.6,6.7-11.6,6.5c-2.2-0.6-16.9,10-16.9,10s-11,9.9-14,10.8
							c5.1,3.1,34.2,28.2,34.2,28.2L258.8,372.1z"/>
						<path class="st10" d="M110.1,289.9c-0.5-0.3-0.8-0.4-0.7-0.2C109.4,290,109.7,290.1,110.1,289.9z"/>
					</g>
					<linearGradient id="SVGID_8_" gradientUnits="userSpaceOnUse" x1="283.0509" y1="124.5896" x2="300.5049" y2="372.6884">
						<stop  offset="0" style="stop-color:#DE5654"/>
						<stop  offset="0.1253" style="stop-color:#CF5254"/>
						<stop  offset="0.3669" style="stop-color:#A74955"/>
						<stop  offset="0.6969" style="stop-color:#683956"/>
						<stop  offset="1" style="stop-color:#282A57"/>
					</linearGradient>
					<path class="st11" d="M604.7,274c-13.2-5.5-38.2-16.5-53.2-19.3c-19.6-3.8-18.4-5-28.2-7.5c-9.8-2.5-38-7.5-45.4-1.3
						c-7.4,6.3-35.6,28.8-41.7,32.5c-6.1,3.8-30.7,12.5-36.8,18.8c-6.1,6.3-61.4,35-77.3,32.5c-16-2.5-79.8-23.8-103.1-33.8
						c-23.3-10-49.1-26.3-61.4-33.8c-12.3-7.5-45.4-22.5-52.8-22.5s-41.7,11.3-49.1,12.5c-7.4,1.3-28.2,8.8-44.2,8.8
						c-5.9,0-13.4,0.5-20.4,1.2v135.2h613.7V274z"/>
					<linearGradient id="SVGID_9_" gradientUnits="userSpaceOnUse" x1="136.8961" y1="211.4181" x2="109.4367" y2="348.7157">
						<stop  offset="0" style="stop-color:#DE5654"/>
						<stop  offset="0.1253" style="stop-color:#CF5254"/>
						<stop  offset="0.3669" style="stop-color:#A74955"/>
						<stop  offset="0.6969" style="stop-color:#683956"/>
						<stop  offset="1" style="stop-color:#282A57"/>
					</linearGradient>
					<path class="st12" d="M11.5,260.9c-5.9,0-13.4,0.5-20.4,1.2v135.2h244.3c-64.3-32.6-148.1-76.5-153.1-86.8
						c-8.2-16.7,47.5-45,45.8-52.6c-1.6-7.5-23.4-18.4-23.4-18.4c-7.4,0-41.7,11.3-49.1,12.5C48.3,253.4,27.5,260.9,11.5,260.9z"/>
					<linearGradient id="SVGID_10_" gradientUnits="userSpaceOnUse" x1="545.0785" y1="218.2967" x2="518.8686" y2="349.3468">
						<stop  offset="0" style="stop-color:#DE5654"/>
						<stop  offset="0.1253" style="stop-color:#CF5254"/>
						<stop  offset="0.3669" style="stop-color:#A74955"/>
						<stop  offset="0.6969" style="stop-color:#683956"/>
						<stop  offset="1" style="stop-color:#282A57"/>
					</linearGradient>
					<path class="st13" d="M523.3,247.2c-8.6-2.2-31.2-6.3-41.7-3.1l0,1.5c0,0-7.4,16.7-5.7,25c1.6,8.3,27.8,25,27.8,42.5
						c0,11-51.3,53.9-89.9,84.2h190.9V274c-13.2-5.5-38.2-16.5-53.2-19.3C531.9,250.9,533.1,249.7,523.3,247.2z"/>
					<path class="st9" d="M-8.9,348.5c1.7,16.3,3.4,33.3,5,48.8h608.7V228.4l-27.4,3.8c0,0,5.7,12.5,0.8,20.9
						c-4.9,8.3-23.7,17.5-34.4,19.2c-10.6,1.7-21.3,8.3-31.9,11.7c-10.6,3.3-5.7,5.8-21.3,19.2s-16.4,22.5-45.8,32.5
						c-29.5,10-85.9,15-113.7,14.2c-27.8-0.8-99-18.4-113.7-20.9c-14.7-2.5-46.6-18.4-60.5-26.7s-41.7-19.2-50.7-21.7
						c-9-2.5-48.3-0.8-58.1-3.3c-9.8-2.5-15.5-15.8-18.8-15.8c-2.4,0-25.6,3.5-38.1,6.4V348.5z"/>
					<path class="st10" d="M604.7,235.9c-3.2,3.8-36,25-40.9,26.3c-4.9,1.3-20.9,11.3-39.3,23.8c-18.4,12.5-39.3,43.8-55.2,51.3
						c-16,7.5-41.7,18.8-54,18.8c-12.3,0-88.4,1.3-98.2,0c-9.8-1.3-106.8-20-124-25c-17.2-5-63.8-32.5-74.9-36.3
						c-8.8-3-93.4-32.3-127.2-44v146.6h613.7V235.9z"/>
				</g>
				<g>
					<path class="st5" d="M594.5,48.7c-2.5,8.3,4.1,10,0.8,15.8s-7.4,0-7.4,5c0,5-1.6,5.8-2.5,10.8c-0.8,5,1.6,5,0,10.8
						c-1.6,5.8-4.1,4.2-8.2,15s-0.8,9.2-4.1,15.8c-3.3,6.7-3.3,7.5-11.5,16.7c-8.2,9.2-9.8,10-18,16.7c-8.2,6.7-4.1,7.5-13.1,16.7
						c-9,9.2-16.4,17.5-26.2,23.4c-9.8,5.8-13.9,9.2-23.7,11.7c-9.8,2.5-17.2,4.2-26.2,8.3c-9,4.2-15.5,5-17.2,5.8
						c-1.6,0.8,9.8,1.7,21.3-1.7c11.5-3.3,8.2-0.8,23.7-5.8c15.5-5,12.3-3.3,31.1-12.5c18.8-9.2,17.2-17.5,29.5-21.7
						c12.3-4.2,18.8-9.2,22.9-15c4.1-5.8,2.5-8.3,12.3-9.2c9.8-0.8,13.9-4.2,15.5-8.3c1.6-4.2,7.3-6.7,11-8.3V32.8
						C601,37.2,596,43.7,594.5,48.7z"/>
					<path class="st5" d="M429.7,221.4c0,0-4.5-3.3-7-0.4c-2.5,2.9-7.8,0-7,3.3c0.8,3.3,2.9,4.6,6.5,2.9c3.7-1.7,6.5-0.8,8.2-2.5
						C432.1,223,429.7,221.4,429.7,221.4z"/>
					<path class="st5" d="M567.5,102.1c0,0-2,3.3-4.1,10c-2,6.7-2,5-7,12.9c-4.9,7.9-6.5,9.2-12.3,14.2c-5.7,5-9,8.8-12.7,11.7
						c-3.7,2.9-7.4,6.7-9,7.1c-1.6,0.4,3.7-7.1,7.8-10.4c4.1-3.3,5.3-4.6,10.6-12.9c5.3-8.3,1.6-9.6,8.6-16.7c7-7.1,7-7.5,10.6-11.7
						c3.7-4.2,5.7-6.3,8.2-9.2c2.5-2.9,6.1-8.8,5.3-5C572.8,95.8,567.5,102.1,567.5,102.1z"/>
					<path class="st5" d="M192.8,203c-9-3.3-15.5-3.3-28.6-7.5c-13.1-4.2-14.7-9.2-27.8-12.5c-13.1-3.3-17.2-3.3-30.3-8.3
						c-13.1-5-15.5-9.2-30.3-16.7c-14.7-7.5-15.5-13.3-29.5-22.5c-13.9-9.2-7.4-15-18-25c-10.6-10-8.2-15-18.8-28.4
						C3.3,74.3-3.9,71.6-8.9,70.7v83.9c2.7,0,5.3-0.6,8.6-1.6c8.2-2.5,4.1-2.5,12.3-1.7s4.9-3.3,13.1,0.8c8.2,4.2,9,11.7,21.3,20
						c12.3,8.3,23.7,6.7,36,10.8c12.3,4.2,18.8,5,34.4,5s14.7,1.7,29.5,7.5c14.7,5.8,10.6,5,22.9,10.8c12.3,5.8,13.1,1.7,22.9,2.5
						C201.8,209.7,201.8,206.3,192.8,203z"/>
					<path class="st5" d="M54.5,102.1c-6.5-5-4.9-6.7-9-10.8c-4.1-4.2-10.6-9.2-16.4-15.8c-5.7-6.7-1.6-9.2-5.7-14.2
						s-4.1-7.5-7.4-14.2c-3.3-6.7-2.5-10-9-14.2C0.5,28.7,4.6,21.2-1.1,9.5c-2.3-4.6-5.1-7.6-7.8-9.6v52.9c5.9,6,8.1,5.1,18.4,14.2
						c12.3,10.8,6.5,9.2,11.5,15.8c4.9,6.7,6.5,7.5,16.4,14.2c9.8,6.7,7.4,6.7,17.2,10.8c9.8,4.2,13.1,10.8,14.7,7.5
						C70.9,112.1,61.1,107.1,54.5,102.1z"/>
				</g>
				<g>
					<path class="st14" d="M548.7,55.4c0,0.3-0.3,0.6-0.6,0.6c-0.3,0-0.6-0.3-0.6-0.6c0-0.3,0.3-0.6,0.6-0.6
						C548.4,54.7,548.7,55,548.7,55.4z"/>
					<ellipse class="st14" cx="121.8" cy="90.4" rx="0.9" ry="0.9"/>
					<path class="st14" d="M498.1,182.9c0,0.5-0.4,0.9-0.9,0.9c-0.5,0-0.9-0.4-0.9-0.9c0-0.5,0.4-0.9,0.9-0.9
						C497.7,181.9,498.1,182.4,498.1,182.9z"/>
					<ellipse class="st14" cx="186.1" cy="124.6" rx="0.9" ry="0.9"/>
					<ellipse class="st14" cx="389.2" cy="63" rx="0.9" ry="0.9"/>
					<ellipse class="st14" cx="214.1" cy="195.4" rx="0.9" ry="0.9"/>
					<ellipse class="st14" cx="429.1" cy="198" rx="0.9" ry="0.9"/>
					<path class="st14" d="M324.5,37c0,0.5-0.4,0.9-0.9,0.9c-0.5,0-0.9-0.4-0.9-0.9c0-0.5,0.4-0.9,0.9-0.9
						C324.1,36.1,324.5,36.5,324.5,37z"/>
					<ellipse class="st14" cx="176" cy="39.8" rx="2" ry="2"/>
					<ellipse class="st14" cx="69.2" cy="94.6" rx="1.5" ry="1.5"/>
					<path class="st14" d="M34.7,219.5c0,0.8-0.7,1.5-1.5,1.5c-0.8,0-1.5-0.7-1.5-1.5c0-0.8,0.7-1.5,1.5-1.5
						C34,218,34.7,218.7,34.7,219.5z"/>
					<path class="st14" d="M585.4,203.7c0,0.8-0.7,1.5-1.5,1.5c-0.8,0-1.5-0.7-1.5-1.5c0-0.8,0.7-1.5,1.5-1.5
						C584.7,202.2,585.4,202.8,585.4,203.7z"/>
					<path class="st14" d="M19.3,141.3c0,1.1-0.9,2-2,2c-1.1,0-2-0.9-2-2c0-1.1,0.9-2,2-2C18.5,139.3,19.3,140.2,19.3,141.3z"/>
				</g>
				<g class="st15">
					<path class="st14" d="M555.7-1.6c0,0.3,0.3,0.6,0.6,0.6c0.3,0,0.6-0.3,0.6-0.6c0-0.3-0.3-0.6-0.6-0.6
						C555.9-2.2,555.7-1.9,555.7-1.6z"/>
					<ellipse class="st14" cx="479" cy="59.5" rx="0.9" ry="0.9"/>
					<ellipse class="st14" cx="103.6" cy="152" rx="0.9" ry="0.9"/>
					<ellipse class="st14" cx="293.5" cy="117.1" rx="0.9" ry="0.9"/>
					<ellipse class="st14" cx="211.6" cy="32.1" rx="0.9" ry="0.9"/>
					<ellipse class="st14" cx="171.6" cy="167.1" rx="0.9" ry="0.9"/>
					<ellipse class="st14" cx="277.2" cy="6.1" rx="0.9" ry="0.9"/>
					<ellipse class="st14" cx="424.7" cy="8.9" rx="2" ry="2"/>
					<path class="st14" d="M530.1,63.7c0,0.8,0.7,1.5,1.5,1.5s1.5-0.7,1.5-1.5c0-0.8-0.7-1.5-1.5-1.5S530.1,62.9,530.1,63.7z"/>
					<ellipse class="st14" cx="132.1" cy="-2.2" rx="1.5" ry="1.5"/>
					<ellipse class="st14" cx="317.8" cy="53.7" rx="1.5" ry="1.5"/>
					<path class="st14" d="M499,6.3c0,0.8,0.7,1.5,1.5,1.5c0.8,0,1.5-0.7,1.5-1.5c0-0.8-0.7-1.5-1.5-1.5C499.6,4.8,499,5.5,499,6.3z
						"/>
					<path class="st14" d="M566.1,188.6c0,0.8,0.7,1.5,1.5,1.5c0.8,0,1.5-0.7,1.5-1.5s-0.7-1.5-1.5-1.5
						C566.7,187.2,566.1,187.8,566.1,188.6z"/>
					<path class="st14" d="M15.4,172.8c0,0.8,0.7,1.5,1.5,1.5c0.8,0,1.5-0.7,1.5-1.5c0-0.8-0.7-1.5-1.5-1.5
						C16.1,171.3,15.4,172,15.4,172.8z"/>
					<ellipse class="st14" cx="583.4" cy="110.4" rx="2" ry="2"/>
				</g>
			</g>
		</g>
	</g>
</g>
<g id="DESIGNED_BY_FREEPIK">
</g>
</svg>
