<?xml version="1.0" encoding="utf-8"?>
<!-- Generator: Adobe Illustrator 25.1.0, SVG Export Plug-In . SVG Version: 6.00 Build 0)  -->
<svg version="1.1" id="Capa_1" xmlns="http://www.w3.org/2000/svg" xmlns:xlink="http://www.w3.org/1999/xlink" x="0px" y="0px"
	 viewBox="0 0 113.4 113.4" style="enable-background:new 0 0 113.4 113.4;" xml:space="preserve">
<style type="text/css">
	.st0{fill:#575756;}
	.st1{fill:#9FD5D6;}
	.st2{fill:#F5D438;}
	.st3{fill:#3A3F57;}
</style>
<g>
	<g>
		<g>
			<g>
				<polygon class="st0" points="48.1,96.2 86.1,73.8 82.3,67.5 78.7,69.6 70.5,55.8 53.4,55 61,40.1 52.5,25.7 56.3,23.4 
					52.6,17.1 14.6,39.5 18.4,45.8 22,43.7 30.1,57.5 46.9,58.6 39.7,73.2 48.2,87.6 44.4,89.9 				"/>
				<path class="st0" d="M51.6,108.6c26.6,0,48.7-20,51.6-46.1h10.2L99.4,44.3L85.5,62.5h10.3c-2.9,22-21.7,38.8-44.2,38.8
					c-24.6,0-44.6-20-44.6-44.6C6.9,32,27,12,51.6,12c7.1,0,13.9,1.6,20.2,4.8l3.3-6.5c-7.3-3.7-15.2-5.6-23.5-5.6
					C22.9,4.7-0.3,28-0.3,56.7C-0.3,85.3,22.9,108.6,51.6,108.6z"/>
			</g>
		</g>
		<g>
			<g>
				<g>
					<polygon class="st1" points="53.4,55 61,40.2 50.6,22.6 20.1,40.6 30.1,57.6 46.9,58.7 39.7,73.3 50.1,90.9 80.6,72.9 
						70.5,55.9 					"/>
					<polygon class="st2" points="58.6,41.6 55,35.5 29.9,50.3 33.2,55.8 50,57 42.2,72.9 52,89.7 78.4,74.1 68.5,57.4 50.6,56.7 
											"/>
					
						<rect x="13.4" y="27.8" transform="matrix(0.8611 -0.5084 0.5084 0.8611 -11.0994 22.4038)" class="st3" width="44.1" height="7.4"/>
					
						<rect x="43.2" y="78.3" transform="matrix(0.8611 -0.5084 0.5084 0.8611 -32.5983 44.541)" class="st3" width="44.1" height="7.4"/>
				</g>
			</g>
			<path class="st3" d="M113.3,62.6L99.4,44.4L85.5,62.6h10.3c-2.9,22-21.7,38.8-44.2,38.8c-24.6,0-44.6-20-44.6-44.6
				c0-24.6,20-44.6,44.6-44.6c7.1,0,13.9,1.6,20.2,4.8l3.3-6.5c-7.3-3.7-15.2-5.6-23.5-5.6C22.9,4.8-0.3,28.1-0.3,56.7
				c0,28.6,23.3,51.9,51.9,51.9c26.6,0,48.7-20,51.6-46.1H113.3z"/>
		</g>
	</g>
</g>
</svg>
